<svg width="16" height="16" viewBox="0 0 16 16" fill="none" xmlns="http://www.w3.org/2000/svg">
<path d="M8.79989 2.40002C8.58771 2.40002 8.38423 2.48431 8.2342 2.63434C8.08417 2.78437 7.99989 2.98785 7.99989 3.20002C7.99989 3.4122 8.08417 3.61568 8.2342 3.76571C8.38423 3.91574 8.58771 4.00002 8.79989 4.00002H10.8687L5.83429 9.03442C5.75788 9.10822 5.69693 9.1965 5.65501 9.2941C5.61308 9.3917 5.59101 9.49668 5.59009 9.6029C5.58916 9.70913 5.60941 9.81447 5.64963 9.91279C5.68986 10.0111 5.74926 10.1004 5.82437 10.1755C5.89949 10.2507 5.98881 10.3101 6.08712 10.3503C6.18544 10.3905 6.29079 10.4107 6.39701 10.4098C6.50323 10.4089 6.60821 10.3868 6.70581 10.3449C6.80341 10.303 6.89169 10.242 6.96549 10.1656L11.9999 5.13122V7.20002C11.9999 7.4122 12.0842 7.61568 12.2342 7.76571C12.3842 7.91574 12.5877 8.00002 12.7999 8.00002C13.0121 8.00002 13.2155 7.91574 13.3656 7.76571C13.5156 7.61568 13.5999 7.4122 13.5999 7.20002V3.20002C13.5999 2.98785 13.5156 2.78437 13.3656 2.63434C13.2155 2.48431 13.0121 2.40002 12.7999 2.40002H8.79989Z" fill="#E2E8F0"/>
<path d="M3.99999 4C3.57565 4 3.16868 4.16857 2.86862 4.46863C2.56856 4.76869 2.39999 5.17565 2.39999 5.6V12C2.39999 12.4243 2.56856 12.8313 2.86862 13.1314C3.16868 13.4314 3.57565 13.6 3.99999 13.6H10.4C10.8243 13.6 11.2313 13.4314 11.5314 13.1314C11.8314 12.8313 12 12.4243 12 12V9.6C12 9.38783 11.9157 9.18434 11.7657 9.03431C11.6157 8.88429 11.4122 8.8 11.2 8.8C10.9878 8.8 10.7843 8.88429 10.6343 9.03431C10.4843 9.18434 10.4 9.38783 10.4 9.6V12H3.99999V5.6H6.39999C6.61217 5.6 6.81565 5.51571 6.96568 5.36569C7.11571 5.21566 7.19999 5.01217 7.19999 4.8C7.19999 4.58783 7.11571 4.38434 6.96568 4.23431C6.81565 4.08429 6.61217 4 6.39999 4H3.99999Z" fill="#E2E8F0"/>
</svg>
